<svg width="60" height="62" viewBox="0 0 60 62" fill="none" xmlns="http://www.w3.org/2000/svg">
<g clip-path="url(#clip0_1768_723)">
<path d="M50 20.6662C50.003 16.6883 48.895 12.794 46.8088 9.45077C44.7227 6.10755 41.7472 3.45748 38.2394 1.81868C34.7317 0.179886 30.8408 -0.378006 27.0337 0.211977C23.2267 0.801959 19.6653 2.51474 16.7771 5.14473C13.8889 7.77472 11.7966 11.2102 10.7513 15.0386C9.7061 18.8671 9.75232 22.926 10.8845 26.728C12.0166 30.53 14.1866 33.9136 17.1339 36.4727C20.0812 39.0317 23.6806 40.6574 27.5 41.1547V49.0829H22.5C21.837 49.0829 21.2011 49.3551 20.7322 49.8395C20.2634 50.324 20 50.9811 20 51.6662C20 52.3514 20.2634 53.0085 20.7322 53.4929C21.2011 53.9774 21.837 54.2496 22.5 54.2496H27.5V59.4162C27.5 60.1014 27.7634 60.7585 28.2322 61.2429C28.7011 61.7274 29.337 61.9996 30 61.9996C30.663 61.9996 31.2989 61.7274 31.7678 61.2429C32.2366 60.7585 32.5 60.1014 32.5 59.4162V54.2496H37.5C38.163 54.2496 38.7989 53.9774 39.2678 53.4929C39.7366 53.0085 40 52.3514 40 51.6662C40 50.9811 39.7366 50.324 39.2678 49.8395C38.7989 49.3551 38.163 49.0829 37.5 49.0829H32.5V41.1547C37.3287 40.5215 41.7689 38.0923 44.9898 34.3213C48.2108 30.5503 49.9919 25.6959 50 20.6662ZM15 20.6662C15 17.6006 15.8797 14.6039 17.5279 12.0549C19.1762 9.50593 21.5189 7.51926 24.2597 6.3461C27.0006 5.17294 30.0166 4.86599 32.9263 5.46406C35.8361 6.06213 38.5088 7.53836 40.6066 9.70608C42.7044 11.8738 44.133 14.6356 44.7118 17.6423C45.2906 20.649 44.9935 23.7656 43.8582 26.5978C42.7229 29.4301 40.8003 31.8508 38.3335 33.554C35.8668 35.2572 32.9667 36.1662 30 36.1662C26.023 36.1621 22.21 34.5278 19.3978 31.6219C16.5856 28.7159 15.004 24.7758 15 20.6662Z" fill="black"/>
</g>
<defs>
<clipPath id="clip0_1768_723">
<rect width="60" height="62" fill="white"/>
</clipPath>
</defs>
</svg>
