<svg width="60" height="60" viewBox="0 0 60 60" fill="none" xmlns="http://www.w3.org/2000/svg">
<g clip-path="url(#clip0_1768_721)">
<path d="M52.53 0H40.0788C38.7035 0 37.5886 1.1168 37.5886 2.49434C37.5886 3.87188 38.7035 4.98867 40.0788 4.98867H51.4991L34.4857 22.0302C25.278 14.7552 11.9258 16.3343 4.66286 25.5572C-2.60007 34.7801 -1.02366 48.1542 8.184 55.4292C17.3917 62.7042 30.7439 61.1251 38.0068 51.9022C44.09 44.1776 44.09 33.282 38.0068 25.5573L55.0203 8.51578V19.9549C55.0203 21.3326 56.1352 22.4493 57.5106 22.4493C58.8859 22.4493 60.0008 21.3325 60.0008 19.9549V7.48312C60.0008 3.35027 56.656 0 52.53 0ZM21.4018 54.876C12.4622 54.876 5.21517 47.617 5.21517 38.6626C5.21517 29.7082 12.4622 22.4493 21.4018 22.4493C30.3415 22.4493 37.5884 29.7082 37.5884 38.6626C37.5775 47.6125 30.3369 54.865 21.4018 54.876Z" fill="black"/>
</g>
<defs>
<clipPath id="clip0_1768_721">
<rect width="60" height="60" fill="white"/>
</clipPath>
</defs>
</svg>
