<svg width="445" height="388" viewBox="0 0 445 388" fill="none" xmlns="http://www.w3.org/2000/svg">
<path d="M132.691 97.448C117.562 115.505 74.3848 91.4819 74.3848 91.4819C74.3848 91.4819 103.469 124.176 103.469 142.074C100.447 163.623 83.642 170.712 43.4354 172.462C64.0702 193.642 69.9204 202.638 73.0722 215.02C74.3183 232.736 59.9624 240.52 27.6152 253.441C59.972 252.366 71.3949 255.619 85.4382 265.055C97.9778 279.909 94.6845 293.213 77.6318 322.33C94.2369 315.324 101.633 313.496 112.795 312.466C139.462 309.284 154.245 335.376 148.719 387.718C162.052 359.319 175.592 345.16 198.459 333.626C235.045 321.097 256.973 337.364 282.465 369.899C292.305 319.92 306.782 306.738 327.369 299.579C349.715 295.203 365.282 300.782 396.591 320.102C376.141 289.936 372.135 279.9 371.928 268.396C372.543 242.427 396.383 240.316 427.609 236.179C414.622 228.936 409.989 224.313 404.397 215.497C393.037 194.897 409.371 176.598 444.051 157.427C418.12 161.066 408.796 158.752 398.525 149.313C387.487 133.252 395.172 118.858 409.371 92.9934C387.472 99.2776 374.851 98.8528 365.71 93.9479C349.614 86.3113 348.923 64.197 363.154 32.0597C341.992 57.1213 332.654 62.9681 319.562 61.8106C304.917 57.0377 299.735 42.1623 293.932 9.62724C278.75 32.3795 270.546 40.7164 256.558 46.5374C236.8 49.083 228.203 34.5264 216.697 0.00195313C212.734 29.6763 209.09 42.0688 199.081 53.6967C180.258 67.5868 166.905 59.4905 141.949 38.5826C144.679 69.793 143.21 83.4049 132.691 97.448Z" fill="url(#paint0_linear_3088_871)" fill-opacity="0.6"/>
<path d="M425.745 20.3044L412.367 8.01172L387.428 54.7369L425.745 20.3044Z" fill="url(#paint1_linear_3088_871)" fill-opacity="0.6"/>
<path d="M67.468 3.25233L40.3615 26.1845L123.344 87.3558L67.468 3.25233Z" fill="url(#paint2_linear_3088_871)" fill-opacity="0.6"/>
<path d="M112.296 30.0735L102.651 36.2787L126.723 59.4145L112.296 30.0735Z" fill="url(#paint3_linear_3088_871)" fill-opacity="0.6"/>
<path d="M5.43083 214.037L5.99232 225.577L37.8044 215.897L5.43083 214.037Z" fill="url(#paint4_linear_3088_871)" fill-opacity="0.6"/>
<path d="M438.369 60.5424L427.959 39.6215L376.861 83.9311L438.369 60.5424Z" fill="url(#paint5_linear_3088_871)" fill-opacity="0.6"/>
<path d="M368.43 369.132L386.289 354.208L332.132 313.777L368.43 369.132Z" fill="url(#paint6_linear_3088_871)" fill-opacity="0.6"/>
<defs>
<linearGradient id="paint0_linear_3088_871" x1="235.833" y1="0.00195312" x2="235.833" y2="387.718" gradientUnits="userSpaceOnUse">
<stop stop-color="#FECEFF"/>
<stop offset="1" stop-color="#FF98FF"/>
</linearGradient>
<linearGradient id="paint1_linear_3088_871" x1="406.586" y1="8.01172" x2="406.586" y2="54.7369" gradientUnits="userSpaceOnUse">
<stop stop-color="#FECEFF"/>
<stop offset="1" stop-color="#FF98FF"/>
</linearGradient>
<linearGradient id="paint2_linear_3088_871" x1="38.8323" y1="37.4972" x2="128.446" y2="49.6106" gradientUnits="userSpaceOnUse">
<stop stop-color="#FECEFF"/>
<stop offset="1" stop-color="#FF98FF"/>
</linearGradient>
<linearGradient id="paint3_linear_3088_871" x1="101.691" y1="39.8418" x2="129.946" y2="47.4561" gradientUnits="userSpaceOnUse">
<stop stop-color="#FECEFF"/>
<stop offset="1" stop-color="#FF98FF"/>
</linearGradient>
<linearGradient id="paint4_linear_3088_871" x1="8.58115" y1="228.184" x2="29.4373" y2="207.471" gradientUnits="userSpaceOnUse">
<stop stop-color="#FECEFF"/>
<stop offset="1" stop-color="#FF98FF"/>
</linearGradient>
<linearGradient id="paint5_linear_3088_871" x1="421.044" y1="36.9361" x2="399.394" y2="92.6823" gradientUnits="userSpaceOnUse">
<stop stop-color="#FECEFF"/>
<stop offset="1" stop-color="#FF98FF"/>
</linearGradient>
<linearGradient id="paint6_linear_3088_871" x1="387.335" y1="346.798" x2="328.638" y2="338.507" gradientUnits="userSpaceOnUse">
<stop stop-color="#FECEFF"/>
<stop offset="1" stop-color="#FF98FF"/>
</linearGradient>
</defs>
</svg>
