<svg width="28" height="28" viewBox="0 0 28 28" fill="none" xmlns="http://www.w3.org/2000/svg">
<path fill-rule="evenodd" clip-rule="evenodd" d="M0 4C0 2.93913 0.421427 1.92172 1.17157 1.17157C1.92172 0.421427 2.93913 0 4 0H5.82933C6.976 0 7.976 0.781333 8.25467 1.89333L9.728 7.79067C9.84739 8.268 9.82328 8.76995 9.65868 9.23363C9.49407 9.69732 9.1963 10.1021 8.80267 10.3973L7.07867 11.6907C6.89867 11.8253 6.86 12.0227 6.91067 12.16C7.66317 14.2065 8.85146 16.0649 10.3933 17.6067C11.9351 19.1485 13.7935 20.3368 15.84 21.0893C15.9773 21.14 16.1733 21.1013 16.3093 20.9213L17.6027 19.1973C17.8979 18.8037 18.3027 18.5059 18.7664 18.3413C19.2301 18.1767 19.732 18.1526 20.2093 18.272L26.1067 19.7453C27.2187 20.024 28 21.024 28 22.172V24C28 25.0609 27.5786 26.0783 26.8284 26.8284C26.0783 27.5786 25.0609 28 24 28H21C9.40267 28 0 18.5973 0 7V4Z" fill="white"/>
</svg>
